<svg width="128" height="50" viewBox="0 0 128 50" fill="none" xmlns="http://www.w3.org/2000/svg">
<rect width="127.953" height="50" rx="25" fill="#C13936"/>
<path d="M20.8256 30V19.0909H25.332C26.1488 19.0909 26.8537 19.2383 27.4467 19.533C28.0433 19.8242 28.5032 20.2433 28.8263 20.7901C29.1495 21.3335 29.3111 21.978 29.3111 22.7237C29.3111 23.4801 29.146 24.1229 28.8157 24.652C28.4854 25.1776 28.0167 25.5788 27.4094 25.8558C26.8022 26.1293 26.0831 26.266 25.2521 26.266H22.4023V24.1886H24.7621C25.1598 24.1886 25.4918 24.1371 25.7582 24.0341C26.0281 23.9276 26.2322 23.7678 26.3707 23.5547C26.5092 23.3381 26.5785 23.0611 26.5785 22.7237C26.5785 22.3864 26.5092 22.1076 26.3707 21.8874C26.2322 21.6637 26.0281 21.4968 25.7582 21.3867C25.4883 21.2731 25.1563 21.2163 24.7621 21.2163H23.4624V30H20.8256ZM26.9673 25.0142L29.6839 30H26.8075L24.1442 25.0142H26.9673ZM34.4207 30.1545C33.5649 30.1545 32.8263 29.9858 32.2048 29.6484C31.5869 29.3075 31.1111 28.8228 30.7773 28.1942C30.447 27.5621 30.2819 26.8111 30.2819 25.9411C30.2819 25.0959 30.4488 24.3572 30.7826 23.7251C31.1164 23.0895 31.5869 22.5959 32.1942 22.2443C32.8014 21.8892 33.517 21.7116 34.3408 21.7116C34.9232 21.7116 35.4559 21.8022 35.9388 21.9833C36.4218 22.1644 36.839 22.4325 37.1906 22.7876C37.5422 23.1428 37.8156 23.5813 38.0109 24.1033C38.2062 24.6218 38.3039 25.2166 38.3039 25.8878V26.5376H31.1927V25.0249H35.8802C35.8767 24.7479 35.811 24.5011 35.6832 24.2844C35.5553 24.0678 35.3795 23.8991 35.1558 23.7784C34.9356 23.6541 34.6817 23.592 34.3941 23.592C34.1029 23.592 33.8419 23.6577 33.6111 23.7891C33.3802 23.9169 33.1974 24.0927 33.0624 24.3164C32.9275 24.5366 32.8564 24.7869 32.8493 25.0675V26.6069C32.8493 26.9407 32.915 27.2337 33.0464 27.4858C33.1778 27.7344 33.3643 27.9279 33.6057 28.0664C33.8472 28.2049 34.1349 28.2741 34.4687 28.2741C34.6995 28.2741 34.909 28.2422 35.0972 28.1783C35.2854 28.1143 35.447 28.0202 35.5819 27.896C35.7169 27.7717 35.8181 27.619 35.8856 27.4379L38.2773 27.5071C38.1778 28.0433 37.9594 28.5103 37.6221 28.908C37.2883 29.3022 36.8497 29.6094 36.3064 29.8295C35.7631 30.0462 35.1345 30.1545 34.4207 30.1545ZM43.4482 33.2386C42.6705 33.2386 42.0046 33.1303 41.4506 32.9137C40.8967 32.6971 40.4616 32.4006 40.1456 32.0241C39.8295 31.6477 39.6396 31.2216 39.5756 30.7457L42.0419 30.6072C42.0881 30.7741 42.1733 30.9197 42.2976 31.044C42.4254 31.1683 42.5906 31.2642 42.793 31.3317C42.9989 31.3991 43.2404 31.4329 43.5174 31.4329C43.9542 31.4329 44.3146 31.3263 44.5987 31.1133C44.8864 30.9038 45.0302 30.5362 45.0302 30.0107V28.5724H44.9396C44.8366 28.8246 44.6804 29.0501 44.4709 29.2489C44.2614 29.4478 44.0004 29.604 43.6879 29.7177C43.3789 29.8313 43.0238 29.8881 42.6225 29.8881C42.0259 29.8881 41.479 29.7496 40.9819 29.4727C40.4883 29.1921 40.0923 28.7589 39.794 28.1729C39.4993 27.5835 39.3519 26.8253 39.3519 25.8984C39.3519 24.9432 39.5046 24.1566 39.81 23.5387C40.1154 22.9173 40.5149 22.4574 41.0085 22.1591C41.5057 21.8608 42.0401 21.7116 42.6119 21.7116C43.0415 21.7116 43.4091 21.7862 43.7145 21.9354C44.0234 22.081 44.2773 22.2692 44.4762 22.5C44.6751 22.7308 44.826 22.9705 44.929 23.2191H45.0036V21.8182H47.5977V30.032C47.5977 30.7244 47.4237 31.3086 47.0756 31.7844C46.7276 32.2603 46.2411 32.6207 45.6161 32.8658C44.9911 33.1143 44.2685 33.2386 43.4482 33.2386ZM43.5281 27.9918C43.8441 27.9918 44.114 27.9084 44.3377 27.7415C44.5614 27.5746 44.7337 27.3349 44.8544 27.0224C44.9751 26.7099 45.0355 26.3352 45.0355 25.8984C45.0355 25.4545 44.9751 25.0728 44.8544 24.7532C44.7372 24.43 44.565 24.1815 44.3377 24.0075C44.114 23.8335 43.8441 23.7464 43.5281 23.7464C43.2049 23.7464 42.9315 23.8352 42.7077 24.0128C42.484 24.1903 42.3136 24.4407 42.1964 24.7638C42.0827 25.0835 42.0259 25.4616 42.0259 25.8984C42.0259 26.3352 42.0845 26.7099 42.2017 27.0224C42.3189 27.3349 42.4876 27.5746 42.7077 27.7415C42.9315 27.9084 43.2049 27.9918 43.5281 27.9918ZM49.2583 30V21.8182H51.863V30H49.2583ZM50.5633 20.8647C50.1975 20.8647 49.8833 20.744 49.6205 20.5025C49.3577 20.2575 49.2263 19.9627 49.2263 19.6183C49.2263 19.2773 49.3577 18.9862 49.6205 18.7447C49.8833 18.4996 50.1975 18.3771 50.5633 18.3771C50.9326 18.3771 51.2469 18.4996 51.5061 18.7447C51.7689 18.9862 51.9003 19.2773 51.9003 19.6183C51.9003 19.9627 51.7689 20.2575 51.5061 20.5025C51.2469 20.744 50.9326 20.8647 50.5633 20.8647ZM60.6641 24.3164L58.2724 24.3803C58.2475 24.2099 58.18 24.0589 58.07 23.9276C57.9599 23.7926 57.8161 23.6879 57.6385 23.6133C57.4645 23.5352 57.2621 23.4961 57.0312 23.4961C56.7294 23.4961 56.4719 23.5565 56.2589 23.6772C56.0494 23.7979 55.9464 23.9613 55.9499 24.1673C55.9464 24.3271 56.0103 24.4656 56.1417 24.5827C56.2766 24.6999 56.5163 24.794 56.8608 24.8651L58.4375 25.1634C59.2543 25.3196 59.8615 25.5788 60.2592 25.9411C60.6605 26.3033 60.8629 26.7827 60.8665 27.3793C60.8629 27.9403 60.696 28.4286 60.3658 28.8441C60.0391 29.2596 59.5916 29.5827 59.0234 29.8136C58.4553 30.0408 57.8054 30.1545 57.0739 30.1545C55.9055 30.1545 54.984 29.9148 54.3093 29.4354C53.6381 28.9524 53.2546 28.3061 53.1587 27.4964L55.7315 27.4325C55.7884 27.7308 55.9357 27.9581 56.1737 28.1143C56.4116 28.2706 56.7152 28.3487 57.0845 28.3487C57.4183 28.3487 57.69 28.2866 57.8995 28.1623C58.109 28.038 58.2156 27.8729 58.2191 27.6669C58.2156 27.4822 58.1339 27.3349 57.9741 27.2248C57.8143 27.1112 57.5639 27.0224 57.223 26.9585L55.7955 26.6868C54.9751 26.5376 54.3643 26.2624 53.9631 25.8612C53.5618 25.4563 53.3629 24.9414 53.3665 24.3164C53.3629 23.7695 53.5085 23.3026 53.8033 22.9155C54.098 22.5249 54.517 22.2266 55.0604 22.0206C55.6037 21.8146 56.2447 21.7116 56.9833 21.7116C58.0913 21.7116 58.9648 21.9442 59.604 22.4094C60.2433 22.8711 60.5966 23.5067 60.6641 24.3164ZM66.7671 21.8182V23.7358H61.6056V21.8182H66.7671ZM62.6869 19.858H65.2916V27.4272C65.2916 27.587 65.3165 27.7166 65.3662 27.8161C65.4195 27.9119 65.4958 27.9812 65.5953 28.0238C65.6947 28.0629 65.8137 28.0824 65.9521 28.0824C66.0516 28.0824 66.1563 28.0735 66.2664 28.0558C66.3801 28.0344 66.4653 28.0167 66.5221 28.0025L66.9163 29.8828C66.792 29.9183 66.6162 29.9627 66.3889 30.016C66.1652 30.0692 65.8971 30.103 65.5846 30.1172C64.9738 30.1456 64.45 30.0746 64.0132 29.9041C63.58 29.7301 63.248 29.4602 63.0171 29.0945C62.7899 28.7287 62.6798 28.2688 62.6869 27.7148V19.858ZM68.0961 30V21.8182H70.6263V23.3097H70.7116C70.8607 22.7699 71.104 22.3686 71.4413 22.1058C71.7787 21.8395 72.1711 21.7063 72.6185 21.7063C72.7393 21.7063 72.8635 21.7152 72.9914 21.733C73.1192 21.7472 73.2382 21.7702 73.3483 21.8022V24.0661C73.224 24.0234 73.0606 23.9897 72.8582 23.9648C72.6594 23.94 72.4818 23.9276 72.3256 23.9276C72.0166 23.9276 71.7378 23.9968 71.4893 24.1353C71.2442 24.2702 71.0507 24.4602 70.9086 24.7053C70.7702 24.9467 70.7009 25.2308 70.7009 25.5575V30H68.0961ZM77.8094 30.1545C76.9536 30.1545 76.2149 29.9858 75.5935 29.6484C74.9756 29.3075 74.4997 28.8228 74.1659 28.1942C73.8357 27.5621 73.6705 26.8111 73.6705 25.9411C73.6705 25.0959 73.8374 24.3572 74.1713 23.7251C74.5051 23.0895 74.9756 22.5959 75.5828 22.2443C76.1901 21.8892 76.9056 21.7116 77.7295 21.7116C78.3119 21.7116 78.8445 21.8022 79.3275 21.9833C79.8105 22.1644 80.2277 22.4325 80.5793 22.7876C80.9308 23.1428 81.2043 23.5813 81.3996 24.1033C81.5949 24.6218 81.6926 25.2166 81.6926 25.8878V26.5376H74.5814V25.0249H79.2689C79.2654 24.7479 79.1997 24.5011 79.0718 24.2844C78.944 24.0678 78.7682 23.8991 78.5445 23.7784C78.3243 23.6541 78.0704 23.592 77.7828 23.592C77.4916 23.592 77.2306 23.6577 76.9997 23.7891C76.7689 23.9169 76.586 24.0927 76.4511 24.3164C76.3161 24.5366 76.2451 24.7869 76.238 25.0675V26.6069C76.238 26.9407 76.3037 27.2337 76.4351 27.4858C76.5665 27.7344 76.7529 27.9279 76.9944 28.0664C77.2359 28.2049 77.5235 28.2741 77.8573 28.2741C78.0882 28.2741 78.2977 28.2422 78.4859 28.1783C78.6741 28.1143 78.8357 28.0202 78.9706 27.896C79.1056 27.7717 79.2068 27.619 79.2742 27.4379L81.6659 27.5071C81.5665 28.0433 81.3481 28.5103 81.0107 28.908C80.6769 29.3022 80.2384 29.6094 79.695 29.8295C79.1517 30.0462 78.5232 30.1545 77.8094 30.1545ZM88.2591 24.5827V26.5909H83.2093V24.5827H88.2591ZM97.2412 24.3164L94.8495 24.3803C94.8247 24.2099 94.7572 24.0589 94.6471 23.9276C94.537 23.7926 94.3932 23.6879 94.2156 23.6133C94.0416 23.5352 93.8392 23.4961 93.6084 23.4961C93.3066 23.4961 93.0491 23.5565 92.836 23.6772C92.6265 23.7979 92.5235 23.9613 92.5271 24.1673C92.5235 24.3271 92.5874 24.4656 92.7188 24.5827C92.8538 24.6999 93.0935 24.794 93.4379 24.8651L95.0146 25.1634C95.8314 25.3196 96.4387 25.5788 96.8364 25.9411C97.2377 26.3033 97.4401 26.7827 97.4436 27.3793C97.4401 27.9403 97.2732 28.4286 96.9429 28.8441C96.6162 29.2596 96.1688 29.5827 95.6006 29.8136C95.0324 30.0408 94.3825 30.1545 93.651 30.1545C92.4827 30.1545 91.5612 29.9148 90.8865 29.4354C90.2153 28.9524 89.8318 28.3061 89.7359 27.4964L92.3087 27.4325C92.3655 27.7308 92.5129 27.9581 92.7508 28.1143C92.9887 28.2706 93.2923 28.3487 93.6617 28.3487C93.9955 28.3487 94.2671 28.2866 94.4767 28.1623C94.6862 28.038 94.7927 27.8729 94.7963 27.6669C94.7927 27.4822 94.711 27.3349 94.5512 27.2248C94.3914 27.1112 94.1411 27.0224 93.8002 26.9585L92.3726 26.6868C91.5523 26.5376 90.9415 26.2624 90.5402 25.8612C90.1389 25.4563 89.9401 24.9414 89.9436 24.3164C89.9401 23.7695 90.0857 23.3026 90.3804 22.9155C90.6752 22.5249 91.0942 22.2266 91.6375 22.0206C92.1808 21.8146 92.8218 21.7116 93.5605 21.7116C94.6684 21.7116 95.542 21.9442 96.1812 22.4094C96.8204 22.8711 97.1737 23.5067 97.2412 24.3164ZM102.551 30.1545C101.695 30.1545 100.956 29.9858 100.335 29.6484C99.7168 29.3075 99.2409 28.8228 98.9071 28.1942C98.5769 27.5621 98.4118 26.8111 98.4118 25.9411C98.4118 25.0959 98.5787 24.3572 98.9125 23.7251C99.2463 23.0895 99.7168 22.5959 100.324 22.2443C100.931 21.8892 101.647 21.7116 102.471 21.7116C103.053 21.7116 103.586 21.8022 104.069 21.9833C104.552 22.1644 104.969 22.4325 105.32 22.7876C105.672 23.1428 105.945 23.5813 106.141 24.1033C106.336 24.6218 106.434 25.2166 106.434 25.8878V26.5376H99.3226V25.0249H104.01C104.007 24.7479 103.941 24.5011 103.813 24.2844C103.685 24.0678 103.509 23.8991 103.286 23.7784C103.066 23.6541 102.812 23.592 102.524 23.592C102.233 23.592 101.972 23.6577 101.741 23.7891C101.51 23.9169 101.327 24.0927 101.192 24.3164C101.057 24.5366 100.986 24.7869 100.979 25.0675V26.6069C100.979 26.9407 101.045 27.2337 101.176 27.4858C101.308 27.7344 101.494 27.9279 101.736 28.0664C101.977 28.2049 102.265 28.2741 102.599 28.2741C102.829 28.2741 103.039 28.2422 103.227 28.1783C103.415 28.1143 103.577 28.0202 103.712 27.896C103.847 27.7717 103.948 27.619 104.015 27.4379L106.407 27.5071C106.308 28.0433 106.089 28.5103 105.752 28.908C105.418 29.3022 104.98 29.6094 104.436 29.8295C103.893 30.0462 103.264 30.1545 102.551 30.1545Z" fill="white"/>
</svg>
