<svg width="33" height="33" viewBox="0 0 33 33" fill="none" xmlns="http://www.w3.org/2000/svg">
<g clip-path="url(#clip0_865_43)">
<path d="M16.5 9.80512C15.6208 9.80512 14.7502 9.97829 13.938 10.3147C13.1257 10.6512 12.3877 11.1443 11.766 11.766C11.1443 12.3877 10.6512 13.1257 10.3147 13.938C9.97828 14.7502 9.80511 15.6208 9.80511 16.5C9.80511 17.3792 9.97828 18.2498 10.3147 19.062C10.6512 19.8743 11.1443 20.6123 11.766 21.234C12.3877 21.8557 13.1257 22.3488 13.938 22.6853C14.7502 23.0217 15.6208 23.1949 16.5 23.1949C18.2756 23.1949 19.9784 22.4895 21.234 21.234C22.4895 19.9785 23.1949 18.2756 23.1949 16.5C23.1949 14.7244 22.4895 13.0215 21.234 11.766C19.9784 10.5105 18.2756 9.80512 16.5 9.80512ZM11.8676 16.5C11.8676 15.2714 12.3557 14.0932 13.2244 13.2244C14.0931 12.3557 15.2714 11.8676 16.5 11.8676C17.7286 11.8676 18.9068 12.3557 19.7756 13.2244C20.6443 14.0932 21.1324 15.2714 21.1324 16.5C21.1324 17.7286 20.6443 18.9068 19.7756 19.7756C18.9068 20.6443 17.7286 21.1324 16.5 21.1324C15.2714 21.1324 14.0931 20.6443 13.2244 19.7756C12.3557 18.9068 11.8676 17.7286 11.8676 16.5Z" fill="#2E2E48"/>
<path d="M20.2043 2.76994C19.1173 -0.921939 13.8827 -0.921939 12.7958 2.76994L12.6019 3.42787C12.526 3.68559 12.3934 3.92305 12.2138 4.12285C12.0341 4.32265 11.8121 4.47973 11.5639 4.58257C11.3157 4.68541 11.0476 4.7314 10.7794 4.71718C10.5111 4.70296 10.2494 4.62888 10.0134 4.50037L9.41119 4.17037C6.02869 2.33062 2.33063 6.03075 4.17244 9.41119L4.50038 10.0134C4.62889 10.2494 4.70296 10.5111 4.71719 10.7794C4.73141 11.0476 4.68542 11.3157 4.58258 11.5639C4.47974 11.8121 4.32266 12.0341 4.12286 12.2137C3.92306 12.3933 3.68559 12.526 3.42788 12.6019L2.76994 12.7957C-0.921931 13.8827 -0.921931 19.1173 2.76994 20.2042L3.42788 20.3981C3.68559 20.474 3.92306 20.6066 4.12286 20.7863C4.32266 20.9659 4.47974 21.1879 4.58258 21.4361C4.68542 21.6843 4.73141 21.9524 4.71719 22.2206C4.70296 22.4889 4.62889 22.7506 4.50038 22.9866L4.17038 23.5888C2.33063 26.9713 6.02869 30.6714 9.41119 28.8276L10.0134 28.4996C10.2494 28.3711 10.5111 28.297 10.7794 28.2828C11.0476 28.2686 11.3157 28.3146 11.5639 28.4174C11.8121 28.5203 12.0341 28.6773 12.2138 28.8771C12.3934 29.0769 12.526 29.3144 12.6019 29.5721L12.7958 30.2301C13.8827 33.9219 19.1173 33.9219 20.2043 30.2301L20.3981 29.5721C20.474 29.3144 20.6067 29.0769 20.7863 28.8771C20.9659 28.6773 21.1879 28.5203 21.4361 28.4174C21.6843 28.3146 21.9524 28.2686 22.2206 28.2828C22.4889 28.297 22.7506 28.3711 22.9866 28.4996L23.5888 28.8296C26.9713 30.6714 30.6714 26.9692 28.8276 23.5888L28.4996 22.9866C28.3711 22.7506 28.297 22.4889 28.2828 22.2206C28.2686 21.9524 28.3146 21.6843 28.4174 21.4361C28.5203 21.1879 28.6774 20.9659 28.8772 20.7863C29.077 20.6066 29.3144 20.474 29.5721 20.3981L30.2301 20.2042C33.9219 19.1173 33.9219 13.8827 30.2301 12.7957L29.5721 12.6019C29.3144 12.526 29.077 12.3933 28.8772 12.2137C28.6774 12.0341 28.5203 11.8121 28.4174 11.5639C28.3146 11.3157 28.2686 11.0476 28.2828 10.7794C28.297 10.5111 28.3711 10.2494 28.4996 10.0134L28.8296 9.41119C30.6714 6.02869 26.9693 2.33062 23.5888 4.17244L22.9866 4.50037C22.7506 4.62888 22.4889 4.70296 22.2206 4.71718C21.9524 4.7314 21.6843 4.68541 21.4361 4.58257C21.1879 4.47973 20.9659 4.32265 20.7863 4.12285C20.6067 3.92305 20.474 3.68559 20.3981 3.42787L20.2043 2.76994ZM14.7737 3.35362C15.2811 1.63144 17.7189 1.63144 18.2263 3.35362L18.4202 4.01156C18.5832 4.56449 18.8678 5.07393 19.2533 5.50254C19.6388 5.93115 20.1152 6.26807 20.6479 6.48858C21.1804 6.7091 21.7556 6.80762 22.3313 6.77694C22.9069 6.74626 23.4684 6.58714 23.9745 6.31125L24.5747 5.98125C26.1504 5.12531 27.8747 6.8475 27.0167 8.42531L26.6888 9.02756C26.4133 9.53375 26.2546 10.0952 26.2242 10.6707C26.1938 11.2462 26.2926 11.8212 26.5133 12.3535C26.734 12.8859 27.071 13.3621 27.4997 13.7473C27.9283 14.1326 28.4377 14.417 28.9905 14.5798L29.6464 14.7737C31.3686 15.2811 31.3686 17.7189 29.6464 18.2263L28.9884 18.4202C28.4355 18.5832 27.9261 18.8678 27.4975 19.2533C27.0688 19.6387 26.7319 20.1152 26.5114 20.6478C26.2909 21.1804 26.1924 21.7556 26.2231 22.3313C26.2537 22.9069 26.4129 23.4684 26.6888 23.9745L27.0188 24.5747C27.8747 26.1504 26.1525 27.8747 24.5747 27.0167L23.9745 26.6887C23.4682 26.4129 22.9066 26.2538 22.3309 26.2233C21.7551 26.1927 21.1799 26.2914 20.6472 26.5122C20.1146 26.7329 19.6381 27.07 19.2528 27.4989C18.8674 27.9277 18.5829 28.4374 18.4202 28.9905L18.2263 29.6464C17.7189 31.3686 15.2811 31.3686 14.7737 29.6464L14.5798 28.9884C14.4168 28.4358 14.1322 27.9266 13.7468 27.4982C13.3615 27.0698 12.8853 26.7331 12.3529 26.5126C11.8206 26.2921 11.2457 26.1935 10.6703 26.224C10.0949 26.2544 9.53362 26.4132 9.02757 26.6887L8.42532 27.0187C6.84957 27.8747 5.12532 26.1525 5.98332 24.5747L6.31126 23.9745C6.58753 23.4683 6.74696 22.9066 6.77785 22.3308C6.80874 21.7549 6.7103 21.1794 6.48975 20.6465C6.26921 20.1137 5.93216 19.6369 5.50333 19.2513C5.0745 18.8657 4.56478 18.581 4.01157 18.4181L3.35363 18.2242C1.63144 17.7169 1.63144 15.279 3.35363 14.7716L4.01157 14.5777C4.56392 14.4146 5.07281 14.1301 5.50099 13.7449C5.92917 13.3597 6.26581 12.8837 6.48627 12.3516C6.70673 11.8195 6.80543 11.2449 6.77515 10.6698C6.74486 10.0946 6.58637 9.53354 6.31126 9.02756L5.98126 8.42531C5.12532 6.84956 6.84751 5.12531 8.42532 5.98331L9.02757 6.31125C9.53362 6.58675 10.0949 6.74556 10.6703 6.77604C11.2457 6.80652 11.8206 6.70791 12.3529 6.48742C12.8853 6.26693 13.3615 5.93016 13.7468 5.50176C14.1322 5.07336 14.4168 4.5642 14.5798 4.01156L14.7737 3.35362Z" fill="#2E2E48"/>
</g>
<defs>
<clipPath id="clip0_865_43">
<rect width="33" height="33" fill="white"/>
</clipPath>
</defs>
</svg>
