<svg width="176" height="54" viewBox="0 0 176 54" fill="none" xmlns="http://www.w3.org/2000/svg">
<path fill-rule="evenodd" clip-rule="evenodd" d="M14 45.4557C14 45.4557 0.00860091 39.5968 0.00638488 34.5379C-0.0079811 2.02975 0.00638488 8.53059 0.00638488 8.53059C0.00638488 8.53059 13.9584 14.4701 13.9559 18.489C13.9357 52.1629 14 45.4557 14 45.4557Z" fill="#C13936"/>
<path fill-rule="evenodd" clip-rule="evenodd" d="M21 45.4557C21 45.4557 35.9908 39.5968 35.9932 34.5379C36.0086 2.02975 35.9932 8.53059 35.9932 8.53059C35.9932 8.53059 21.0446 14.4701 21.0472 18.489C21.0689 52.1629 21 45.4557 21 45.4557Z" fill="#C13936"/>
<path d="M51.1308 37.4149C51.3053 36.6466 51.5742 36.0113 51.9375 35.509L64.5611 19.131H56.0363C55.4549 19.131 54.8881 19.009 54.3357 18.7653C53.7834 18.5215 53.2819 18.1706 52.8314 17.7126C51.9593 16.7818 51.5232 15.7253 51.5232 14.5433C51.5232 13.9523 51.6468 13.3613 51.8938 12.7703C52.1409 12.1793 52.4825 11.6769 52.9186 11.2632C53.8197 10.4211 54.859 10 56.0363 10H74.5683C74.9317 10 75.2878 10.0443 75.6367 10.133C76.7559 10.3841 77.6534 10.942 78.3293 11.8062C79.0052 12.6706 79.3431 13.6273 79.3431 14.6762C79.3431 15.3116 79.2123 15.9321 78.9506 16.5379C78.6454 17.055 78.3765 17.4613 78.1439 17.7569L65.6293 33.869H76.5741C77.8241 33.869 78.8743 34.3086 79.7246 35.1877C80.5749 36.0668 81 37.1565 81 38.4567C81 39.7274 80.5603 40.8022 79.681 41.6813C78.8017 42.5604 77.7514 43 76.5305 43H55.8619C54.452 43 53.2892 42.5642 52.3735 41.6925C51.4578 40.8207 51 39.7422 51 38.4568C51 38.117 51.0436 37.7697 51.1308 37.4151V37.4149Z" fill="#C13936"/>
<path d="M96.9547 43.7767C94.6522 43.4195 92.626 42.8205 90.8757 41.9796C89.1256 41.1387 87.6749 40.082 86.5237 38.8096C85.3724 37.5371 84.4974 36.0451 83.8985 34.3335C83.2996 32.622 83 30.7542 83 28.7301V15.4248C83 13.9217 83.5289 12.6417 84.5868 11.585C85.6914 10.5283 87.0137 10 88.5539 10C90.0629 10 91.3386 10.4986 92.3809 11.4957C93.4854 12.5524 94.0377 13.8323 94.0377 15.3355V29.065C94.0377 30.1069 94.2244 31.0258 94.5978 31.8221C94.9712 32.6184 95.5117 33.2732 96.2196 33.7866C96.9275 34.3001 97.7948 34.6462 98.8215 34.8247C99.3505 34.8842 99.7472 34.914 100.012 34.914C100.261 34.914 100.65 34.8842 101.178 34.8247C102.205 34.6461 103.069 34.3038 103.769 33.7978C104.469 33.2918 105.006 32.6369 105.379 31.8333C105.752 31.0296 105.939 30.1069 105.939 29.065V15.3355C105.939 13.8472 106.499 12.5673 107.619 11.4957C108.661 10.4985 109.937 10 111.446 10C113.002 10 114.309 10.5283 115.366 11.585C115.864 12.0464 116.261 12.6231 116.557 13.3151C116.852 14.0072 117 14.7104 117 15.4248V28.7301C117 30.7839 116.704 32.6592 116.113 34.3559C115.522 36.0526 114.639 37.5371 113.465 38.8096C112.29 40.082 110.828 41.1387 109.078 41.9796C107.327 42.8205 105.293 43.4195 102.975 43.7767C102.182 43.9255 101.179 44 99.9651 44C98.7984 44 97.7949 43.9255 96.9549 43.7767H96.9547Z" fill="#C13936"/>
<path d="M121.511 42.3702C120.504 41.0902 120 39.6838 120 38.1509V15.4248C120 14.2937 120.283 13.2743 120.85 12.3664C121.416 11.4585 122.168 10.8036 123.105 10.4019C123.706 10.134 124.308 10 124.909 10C126.406 10 127.825 10.8334 129.168 12.5003L140.077 26.2744V15.4249C140.077 13.9515 140.573 12.6864 141.566 11.6297C142.545 10.6028 143.706 10.0894 145.049 10.0894C145.72 10.0894 146.36 10.2196 146.969 10.48C147.577 10.7405 148.098 11.1237 148.531 11.6297C148.979 12.0911 149.336 12.6604 149.601 13.3376C149.867 14.0148 150 14.7105 150 15.4249V38.7091C150 38.9323 149.972 39.282 149.916 39.7584C149.776 40.577 149.465 41.3099 148.983 41.9572C148.5 42.6047 147.916 43.107 147.231 43.4642C146.545 43.8214 145.804 44 145.007 44C144.056 44 143.196 43.747 142.427 43.241C141.867 42.8392 141.455 42.4522 141.189 42.0802L129.923 27.3685V38.6645C129.923 40.1974 129.441 41.4774 128.476 42.5043C127.539 43.5015 126.406 44 125.077 44C123.637 44 122.448 43.4568 121.511 42.3704L121.511 42.3702Z" fill="#C13936"/>
<path d="M156.48 42.4576C155.493 41.4144 155 40.1328 155 38.6128V15.2978C155 13.8076 155.49 12.552 156.469 11.5312C157.449 10.5104 158.636 10 160.032 10C160.92 10 161.748 10.2347 162.516 10.7041C163.284 11.1735 163.89 11.8181 164.334 12.6377C164.778 13.4574 165 14.359 165 15.3425V38.7022C165 39.4026 164.877 40.0844 164.63 40.7475C164.383 41.4107 164.02 41.9956 163.541 42.5023C162.555 43.5008 161.385 44 160.032 44C158.594 44 157.41 43.4859 156.48 42.4576Z" fill="#C13936"/>
</svg>
